<?xml version="1.0" encoding="UTF-8" standalone="no"?>
<!-- Created with Inkscape (http://www.inkscape.org/) -->

<svg
   width="73.380371mm"
   height="67.460754mm"
   viewBox="0 0 73.380371 67.460753"
   version="1.1"
   id="svg1"
   sodipodi:docname="uwebialogo1-2.svg"
   inkscape:version="1.3.2 (091e20e, 2023-11-25, custom)"
   xmlns:inkscape="http://www.inkscape.org/namespaces/inkscape"
   xmlns:sodipodi="http://sodipodi.sourceforge.net/DTD/sodipodi-0.dtd"
   xmlns:xlink="http://www.w3.org/1999/xlink"
   xmlns="http://www.w3.org/2000/svg"
   xmlns:svg="http://www.w3.org/2000/svg">
  <sodipodi:namedview
     id="namedview1"
     pagecolor="#ffffff"
     bordercolor="#000000"
     borderopacity="0.25"
     inkscape:showpageshadow="2"
     inkscape:pageopacity="0.0"
     inkscape:pagecheckerboard="0"
     inkscape:deskcolor="#d1d1d1"
     inkscape:document-units="mm"
     showgrid="true"
     inkscape:zoom="2"
     inkscape:cx="57.25"
     inkscape:cy="132.25"
     inkscape:window-width="1920"
     inkscape:window-height="1111"
     inkscape:window-x="-9"
     inkscape:window-y="-9"
     inkscape:window-maximized="1"
     inkscape:current-layer="layer1">
    <inkscape:grid
       id="grid5"
       units="mm"
       originx="-57.920177"
       originy="-129.99289"
       spacingx="0.99999998"
       spacingy="1"
       empcolor="#0099e5"
       empopacity="0.30196078"
       color="#0099e5"
       opacity="0.14901961"
       empspacing="5"
       dotted="false"
       gridanglex="30"
       gridanglez="30"
       visible="true" />
  </sodipodi:namedview>
  <defs
     id="defs1">
    <linearGradient
       id="linearGradient5"
       inkscape:collect="always">
      <stop
         style="stop-color:#cd21ff;stop-opacity:1;"
         offset="0"
         id="stop5" />
      <stop
         style="stop-color:#2affff;stop-opacity:1;"
         offset="1"
         id="stop6" />
    </linearGradient>
    <linearGradient
       id="linearGradient3"
       inkscape:collect="always">
      <stop
         style="stop-color:#4eafd2;stop-opacity:1;"
         offset="0"
         id="stop3" />
      <stop
         style="stop-color:#c692ff;stop-opacity:1;"
         offset="1"
         id="stop4" />
    </linearGradient>
    <linearGradient
       id="linearGradient1"
       inkscape:collect="always">
      <stop
         style="stop-color:#8a82b3;stop-opacity:1;"
         offset="0"
         id="stop1" />
      <stop
         style="stop-color:#51b7d1;stop-opacity:1;"
         offset="1"
         id="stop2" />
    </linearGradient>
    <linearGradient
       inkscape:collect="always"
       xlink:href="#linearGradient1"
       id="linearGradient2"
       x1="57.782505"
       y1="168.60426"
       x2="131.43822"
       y2="168.60426"
       gradientUnits="userSpaceOnUse" />
    <linearGradient
       inkscape:collect="always"
       xlink:href="#linearGradient3"
       id="linearGradient4"
       x1="58.727478"
       y1="148.48972"
       x2="130.24252"
       y2="148.48972"
       gradientUnits="userSpaceOnUse" />
    <linearGradient
       inkscape:collect="always"
       xlink:href="#linearGradient5"
       id="linearGradient6"
       x1="81.849991"
       y1="147.72205"
       x2="200.34331"
       y2="147.72205"
       gradientUnits="userSpaceOnUse"
       gradientTransform="matrix(0.26695871,0,0,0.26724951,57.494121,129.24646)" />
  </defs>
  <g
     inkscape:groupmode="layer"
     id="layer2"
     inkscape:label="Layer 2"
     transform="translate(-57.920178,-129.9929)" />
  <g
     inkscape:label="Layer 1"
     inkscape:groupmode="layer"
     id="layer1"
     transform="translate(-57.920178,-129.9929)">
    <path
       style="fill:#000000;stroke-width:0.264583"
       d="M 64.918031,107.43934 105.4918,166.51475"
       id="path1" />
    <path
       style="opacity:1;fill:url(#linearGradient2);stroke:#99cfff;stroke-width:0;stroke-linecap:round;stroke-linejoin:bevel;stroke-dasharray:none;stroke-opacity:1"
       d="m 58.87827,139.71534 c 0,0 -10.225998,57.40417 36.138678,57.73689 46.364682,0.3327 35.071912,-57.73975 35.071912,-57.73975 l -26.09277,27.28692 c 0,0 2.47199,4.98466 5.03961,10.05769 2.56762,5.07302 5.23087,10.23441 -14.030937,10.40077 -19.261797,0.16636 -16.069,-5.28329 -14.004226,-10.43884 2.064774,-5.15555 5.002497,-10.01117 5.002497,-10.01117 z"
       id="path2"
       sodipodi:nodetypes="csccssscc" />
    <path
       style="opacity:1;fill:url(#linearGradient4);stroke:#86c8fd;stroke-width:0;stroke-linecap:round;stroke-linejoin:round;stroke-dasharray:none;stroke-opacity:1;paint-order:markers fill stroke"
       d="m 58.895924,139.95937 27.104775,27.04905 8.996519,-16.99591 9.001772,16.99125 26.00494,-27.00514 -15.00278,0.005 -8.95313,18.03432 L 95.000119,129.9929 84.03,158.05796 74.91578,139.95054 Z"
       id="path25"
       sodipodi:nodetypes="ccccccccccc" />
    <path
       style="opacity:1;fill:url(#linearGradient6);fill-opacity:1;stroke:#ffffff;stroke-width:0;stroke-dasharray:none;stroke-opacity:0"
       d="m 90.528579,187.43167 c -3.910071,-0.18856 -7.304165,-0.86877 -8.959728,-1.79561 -1.722738,-0.96447 -2.441934,-2.44426 -2.090889,-4.30216 0.42981,-2.27478 3.264408,-8.69588 5.788112,-13.11157 0.430666,-0.75353 2.799645,-5.18399 5.264391,-9.84547 2.464748,-4.66147 4.513007,-8.44376 4.551689,-8.40507 0.03869,0.0387 2.028684,3.76758 4.422231,8.28643 4.740875,8.95047 10.650585,20.67304 11.071355,21.96131 0.31459,0.96316 0.41603,1.75161 0.31956,2.48367 -0.36658,2.78163 -4.26206,4.27504 -12.249684,4.6962 -1.660515,0.0876 -6.566208,0.10706 -8.117037,0.0322 z"
       id="path4" />
  </g>
</svg>
